<?xml version="1.0" encoding="utf-8"?>
<!-- Svg Vector Icons : http://www.onlinewebfonts.com/icon -->
<!DOCTYPE svg PUBLIC "-//W3C//DTD SVG 1.1//EN" "http://www.w3.org/Graphics/SVG/1.1/DTD/svg11.dtd">
<svg version="1.1" xmlns="http://www.w3.org/2000/svg" xmlns:xlink="http://www.w3.org/1999/xlink" x="0px" y="0px" viewBox="0 0 1000 1000" enable-background="new 0 0 1000 1000" xml:space="preserve">
<metadata> Svg Vector Icons : http://www.onlinewebfonts.com/icon </metadata>
<g><g transform="translate(0.000000,511.000000) scale(0.100000,-0.100000)"><path d="M4375.3,2394.9l-6-2094.9l-1108.1-6l-1110.1-4v939v941L1124.6,1143.5L100,118.9L1120.6-903.6l1020.6-1020.6l6,927.1l4,929.1h1114.1h1114.1v-2098.9v-2100.8l175.1,6l173.1,6l6,4372.8l4,4370.8h-179h-179.1L4375.3,2394.9z"/><path d="M5274.5,111v-4376.8h179.1h179v2098.9V-68.1h1114.1h1114.1v-929.1v-931.1L8879.4-907.6L9900,111L8879.4,1129.6L7860.8,2150.2v-931.1V290H6746.7H5632.6v2098.9v2098.9h-179h-179.1V111z"/></g></g>
</svg>